#!OML:ASF F:\VICON\USERDATA\INSTALL\rory3\rory3.ASF
:FULLY-SPECIFIED
:DEGREES
1
root 3.51102 17.6651 2.09231 11.3717 -49.0123 9.38497
lowerback -10.5561 0.911331 -3.27571
upperback -12.008 0.971182 -1.22337
thorax -6.8247 0.524105 0.599849
lowerneck -4.55389 19.3088 12.375
upperneck 11.0977 25.0432 -0.427529
head 5.63226 12.7304 -0.0238356
rclavicle 9.68081e-014 5.24792e-014
rhumerus 3.43217 -24.9865 18.1937
rradius 127.051
rwrist -56.907
rhand -6.14003 -46.3402
rfingers 7.12502
rthumb 19.6977 -75.3622
lclavicle 9.68081e-014 5.24792e-014
lhumerus 28.2996 26.4812 -16.663
lradius 33.2832
lwrist 39.5064
lhand -30.5965 -24.709
lfingers 7.12502
lthumb -3.89346 5.23517
rfemur -7.2754 9.97386 -10.932
rtibia 16.0515
rfoot -19.2003 -28.8402
rtoes 38.3902
lfemur -12.5479 -6.95377 -26.5103
ltibia -1.35174e-014
lfoot -0.796719 25.836
ltoes 5.8395
2
root 3.50948 17.6707 2.08007 11.5036 -49.0195 9.13567
lowerback -10.4023 0.886863 -3.1867
upperback -12.0078 0.932711 -1.14459
thorax -6.90672 0.503439 0.62938
lowerneck -4.56747 19.3705 12.518
upperneck 11.151 25.1167 -0.459402
head 5.67711 12.7688 -0.0310541
rclavicle -3.926e-014 -1.35174e-014
rhumerus 3.55954 -25.0058 18.0774
rradius 127.049
rwrist -57.0514
rhand -5.44097 -45.667
rfingers 7.12502
rthumb 20.3697 -74.6187
lclavicle -3.926e-014 -1.35174e-014
lhumerus 28.2856 26.5644 -16.6079
lradius 33.3338
lwrist 39.2211
lhand -30.4748 -24.0619
lfingers 7.12502
lthumb -3.77597 5.88444
rfemur -7.33626 10.1208 -10.7088
rtibia 16.1705
rfoot -17.9458 -29.7405
rtoes 36.4718
lfemur -12.5315 -6.88373 -26.272
ltibia 1.03368e-014
lfoot -1.04377 25.8247
ltoes 6.5044
3
root 3.5073 17.668 2.06938 11.3446 -49.143 9.26401
lowerback -10.3188 0.947606 -3.29922
upperback -12.0427 1.01585 -1.10767
thorax -6.99992 0.556845 0.732366
lowerneck -4.08891 19.2778 12.5522
upperneck 10.7938 25.0906 -0.791099
head 5.53392 12.743 -0.196403
rclavicle -1.36167e-014 -3.53837e-014
rhumerus 3.63028 -24.9229 18.1963
rradius 127.055
rwrist -57.1149
rhand -4.89083 -44.9738
rfingers 7.12502
rthumb 20.8983 -73.8681
lclavicle -1.36167e-014 -3.53837e-014
lhumerus 28.356 26.3819 -16.4469
lradius 33.317
lwrist 39.1915
lhand -30.4032 -23.9257
lfingers 7.12502
lthumb -3.70684 6.02185
rfemur -7.49535 10.0392 -10.8163
rtibia 16.4285
rfoot -14.8976 -30.9258
rtoes 32.4589
lfemur -12.5479 -6.7505 -26.2962
ltibia 7.95139e-016
lfoot -1.3456 25.7952
ltoes 7.51255
4
root 3.50494 17.6639 2.06122 11.1084 -49.2089 9.58359
lowerback -10.3784 0.984831 -3.46606
upperback -12.0364 1.07334 -1.16751
thorax -6.96685 0.595073 0.765373
lowerneck -3.48737 19.1287 12.5041
upperneck 10.1021 25.0054 -1.1671
head 5.25729 12.6828 -0.406093
rclavicle -3.75703e-014 5.96354e-015
rhumerus 3.58634 -24.9214 18.2589
rradius 127.078
rwrist -57.0986
rhand -4.6215 -44.5743
rfingers 7.12502
rthumb 21.157 -73.4399
lclavicle -3.75703e-014 5.96354e-015
lhumerus 28.5883 26.46 -16.2467
lradius 33.169
lwrist 39.0932
lhand -30.3385 -24.1003
lfingers 7.12502
lthumb -3.64432 5.84824
rfemur -7.61024 9.85562 -11.0717
rtibia 16.6047
rfoot -12.7507 -31.4117
rtoes 29.8266
lfemur -12.5827 -6.72067 -26.4856
ltibia -1.82882e-014
lfoot -1.46602 25.7574
ltoes 3.81509
5
root 3.5047 17.6672 2.04706 11.0434 -49.1916 9.70045
lowerback -10.3172 0.980827 -3.59112
upperback -12.0326 1.07065 -1.20967
thorax -7.0002 0.602196 0.789335
lowerneck -3.68392 19.1632 12.3261
upperneck 10.2213 25.0089 -0.90031
head 5.26982 12.6912 -0.293091
rclavicle 1.43125e-014 1.86858e-014
rhumerus 3.44524 -24.9109 18.2738
rradius 127.184
rwrist -56.9825
rhand -4.67156 -44.8579
rfingers 7.12502
rthumb 21.109 -73.7289
lclavicle 1.43125e-014 1.86858e-014
lhumerus 28.679 26.3439 -16.4
lradius 33.0806
lwrist 39.5422
lhand -30.1623 -24.408
lfingers 7.12502
lthumb -3.47415 5.54339
rfemur -7.73903 9.87118 -11.1325
rtibia 16.7912
rfoot -11.3278 -31.5354
rtoes 27.7533
lfemur -12.6261 -6.75199 -26.54
ltibia 3.4191e-014
lfoot -1.45944 25.7591
ltoes 7.83879
6
root 3.50441 17.6674 2.03503 10.9236 -49.2262 9.84038
lowerback -10.247 0.986626 -3.70546
upperback -12.0163 1.08117 -1.24146
thorax -7.02497 0.615584 0.818781
lowerneck -4.45152 19.2664 12.3405
upperneck 11.1194 25.0155 -0.512953
head 5.62885 12.7133 -0.0555534
rclavicle 1.799e-014 2.90226e-014
rhumerus 3.32573 -24.857 18.3292
rradius 127.393
rwrist -56.9042
rhand -5.6336 -45.9164
rfingers 7.12502
rthumb 20.1845 -74.8877
lclavicle 1.799e-014 2.90226e-014
lhumerus 28.5657 26.0258 -16.7025
lradius 33.1095
lwrist 40.1675
lhand -29.975 -24.5279
lfingers 7.12502
lthumb -3.29328 5.42641
rfemur -7.80908 9.88111 -11.2224
rtibia 16.9042
rfoot -11.9282 -30.994
rtoes 28.6859
lfemur -12.6033 -6.74105 -26.6626
ltibia -8.74653e-015
lfoot -1.44817 25.8538
ltoes 7.09566
7
root 3.50253 17.6634 2.02784 10.708 -49.2911 10.1474
lowerback -10.3009 0.939444 -3.8257
upperback -11.9794 1.0249 -1.30477
thorax -6.95434 0.592109 0.818339
lowerneck -4.57642 19.2304 12.7326
upperneck 11.2677 24.9636 -0.859382
head 5.78623 12.6795 -0.163837
rclavicle 1.56046e-014 -2.38542e-015
rhumerus 3.44839 -24.9239 18.1434
rradius 127.441
rwrist -56.8683
rhand -6.24923 -46.4833
rfingers 7.12502
rthumb 19.5928 -75.516
lclavicle 1.56046e-014 -2.38542e-015
lhumerus 28.3377 25.9091 -16.9402
lradius 33.1603
lwrist 40.2717
lhand -30.2641 -25.1682
lfingers 7.12502
lthumb -3.5725 4.78164
rfemur -7.86163 9.69941 -11.4613
rtibia 16.9477
rfoot -12.9364 -30.5782
rtoes 30.4241
lfemur -12.5993 -6.73062 -26.9176
ltibia 7.95139e-015
lfoot -1.19552 25.9302
ltoes 6.3106
